<svg width="50" height="38" viewBox="0 0 50 38" fill="none" xmlns="http://www.w3.org/2000/svg">
<path d="M21.1743 33.7871C22.3841 34.392 25.5295 35.2388 28.433 33.7871" stroke="black" stroke-width="2.03853" stroke-linecap="round"/>
<path d="M9.27391 5.51967C8.02826 8.25755 5.66936 9.1613 3.82244 8.66642C1.97553 8.17154 0.529668 5.66776 1.02446 3.82118C1.51925 1.9746 4.02329 0.529187 5.87021 1.02407C7.71712 1.51894 9.7687 3.67309 9.27391 5.51967Z" fill="#0B0B0B"/>
<path d="M40.0018 5.5664C41.2481 8.30605 43.6082 9.21047 45.4559 8.71537C47.3037 8.22026 48.7501 5.71498 48.255 3.86722C47.7599 2.01946 45.2546 0.573038 43.4069 1.06814C41.5591 1.56325 39.5067 3.71865 40.0018 5.5664Z" fill="#0B0B0B"/>
<path d="M13.6092 30.6623C10.9989 30.6623 8.94399 30.0236 7.44445 28.7462C5.94491 27.4688 5.14886 25.5898 5.0563 23.1091C5.03778 22.5722 5.02853 21.7762 5.02853 20.7209C5.02853 19.6472 5.03778 18.8419 5.0563 18.305C5.14886 15.8613 5.95417 13.9823 7.47222 12.6678C9.00878 11.3349 11.0544 10.6685 13.6092 10.6685C16.164 10.6685 18.2097 11.3349 19.7462 12.6678C21.2828 13.9823 22.0881 15.8613 22.1621 18.305C22.1992 19.3787 22.2177 20.1841 22.2177 20.7209C22.2177 21.2393 22.1992 22.0353 22.1621 23.1091C22.0696 25.5898 21.2735 27.4688 19.774 28.7462C18.2744 30.0236 16.2195 30.6623 13.6092 30.6623ZM13.6092 26.6635C14.6274 26.6635 15.4327 26.3581 16.0251 25.7472C16.6361 25.1362 16.96 24.2013 16.9971 22.9425C17.0341 21.8687 17.0526 21.1097 17.0526 20.6654C17.0526 20.1841 17.0341 19.425 16.9971 18.3883C16.96 17.1294 16.6361 16.1945 16.0251 15.5836C15.4142 14.9727 14.6089 14.6672 13.6092 14.6672C12.6095 14.6672 11.8042 14.9727 11.1933 15.5836C10.6009 16.1945 10.2769 17.1294 10.2214 18.3883C10.2029 18.9067 10.1936 19.6657 10.1936 20.6654C10.1936 21.6466 10.2029 22.4056 10.2214 22.9425C10.2769 24.2013 10.6009 25.1362 11.1933 25.7472C11.7857 26.3581 12.591 26.6635 13.6092 26.6635ZM36.1554 30.6623C33.5451 30.6623 31.4902 30.0236 29.9907 28.7462C28.4911 27.4688 27.6951 25.5898 27.6025 23.1091C27.584 22.5722 27.5748 21.7762 27.5748 20.7209C27.5748 19.6472 27.584 18.8419 27.6025 18.305C27.6951 15.8613 28.5004 13.9823 30.0184 12.6678C31.555 11.3349 33.6007 10.6685 36.1554 10.6685C38.7102 10.6685 40.7559 11.3349 42.2924 12.6678C43.829 13.9823 44.6343 15.8613 44.7084 18.305C44.7454 19.3787 44.7639 20.1841 44.7639 20.7209C44.7639 21.2393 44.7454 22.0353 44.7084 23.1091C44.6158 25.5898 43.8197 27.4688 42.3202 28.7462C40.8207 30.0236 38.7657 30.6623 36.1554 30.6623ZM36.1554 26.6635C37.1736 26.6635 37.979 26.3581 38.5714 25.7472C39.1823 25.1362 39.5063 24.2013 39.5433 22.9425C39.5803 21.8687 39.5988 21.1097 39.5988 20.6654C39.5988 20.1841 39.5803 19.425 39.5433 18.3883C39.5063 17.1294 39.1823 16.1945 38.5714 15.5836C37.9604 14.9727 37.1551 14.6672 36.1554 14.6672C35.1558 14.6672 34.3504 14.9727 33.7395 15.5836C33.1471 16.1945 32.8231 17.1294 32.7676 18.3883C32.7491 18.9067 32.7398 19.6657 32.7398 20.6654C32.7398 21.6466 32.7491 22.4056 32.7676 22.9425C32.8231 24.2013 33.1471 25.1362 33.7395 25.7472C34.3319 26.3581 35.1372 26.6635 36.1554 26.6635Z" fill="black"/>
</svg>
